<svg width="19" height="18" viewBox="0 0 19 18" fill="none" xmlns="http://www.w3.org/2000/svg">
<path d="M3.95833 0C1.78152 0 0 1.68775 0 3.75V14.25C0 16.3122 1.78152 18 3.95833 18H15.0417C17.2185 18 19 16.3122 19 14.25V3.75C19 1.68775 17.2185 0 15.0417 0H3.95833ZM13.4583 3H15.0417C15.4797 3 15.8333 3.335 15.8333 3.75C15.8333 4.165 15.4797 4.5 15.0417 4.5H13.4583C13.0203 4.5 12.6667 4.165 12.6667 3.75C12.6667 3.335 13.0203 3 13.4583 3ZM9.5 6C11.2583 6 12.6667 7.33426 12.6667 9C12.6667 10.6657 11.2583 12 9.5 12C7.74172 12 6.33333 10.6657 6.33333 9C6.33333 7.33426 7.74172 6 9.5 6ZM1.58333 7.00001H5.25303C4.93399 7.60385 4.75 8.28159 4.75 9C4.75 11.4764 6.88602 13.5 9.5 13.5C12.114 13.5 14.25 11.4764 14.25 9C14.25 8.28159 14.066 7.60385 13.747 7.00001H17.4167V14.25C17.4167 15.5018 16.3629 16.5 15.0417 16.5H3.95833C2.63704 16.5 1.58333 15.5018 1.58333 14.25V7.00001Z" fill="#F8F6FB"/>
</svg>
