<svg width="14" height="16" viewBox="0 0 14 16" fill="none" xmlns="http://www.w3.org/2000/svg">
<path d="M1.50586 15.3375C1.54803 15.6104 1.80344 15.7974 2.07635 15.7552L6.52358 15.0681C6.79648 15.0259 6.98353 14.7705 6.94137 14.4976C6.8992 14.2247 6.64379 14.0377 6.37088 14.0798L2.41779 14.6906L1.807 10.7375C1.76484 10.4646 1.50942 10.2776 1.23652 10.3197C0.963615 10.3619 0.776565 10.6173 0.818731 10.8902L1.50586 15.3375ZM13.1293 0.662592C13.0871 0.389688 12.8317 0.202638 12.5588 0.244803L8.11158 0.931936C7.83868 0.974102 7.65163 1.22952 7.69379 1.50242C7.73596 1.77532 7.99138 1.96237 8.26428 1.92021L12.2174 1.30943L12.8282 5.26252C12.8703 5.53542 13.1257 5.72247 13.3986 5.68031C13.6715 5.63814 13.8586 5.38273 13.8164 5.10982L13.1293 0.662592ZM2.40339 15.5565C2.41118 15.5459 2.41898 15.5353 2.42677 15.5246C2.43457 15.514 2.44236 15.5033 2.45017 15.4927C2.45797 15.482 2.46577 15.4714 2.47358 15.4607C2.48138 15.45 2.48919 15.4394 2.49701 15.4287C2.50482 15.418 2.51264 15.4074 2.52045 15.3967C2.52827 15.386 2.53609 15.3753 2.54392 15.3646C2.55174 15.354 2.55957 15.3433 2.5674 15.3326C2.57523 15.3219 2.58306 15.3112 2.59089 15.3005C2.59873 15.2898 2.60657 15.2791 2.61441 15.2684C2.62225 15.2577 2.63009 15.247 2.63794 15.2363C2.64578 15.2256 2.65363 15.2148 2.66148 15.2041C2.66933 15.1934 2.67719 15.1827 2.68504 15.1719C2.6929 15.1612 2.70076 15.1505 2.70862 15.1397C2.71648 15.129 2.72435 15.1183 2.73221 15.1075C2.74008 15.0968 2.74795 15.086 2.75582 15.0753C2.76369 15.0645 2.77157 15.0538 2.77945 15.043C2.78732 15.0323 2.7952 15.0215 2.80309 15.0108C2.81097 15 2.81885 14.9892 2.82674 14.9785C2.83463 14.9677 2.84252 14.9569 2.85041 14.9461C2.8583 14.9354 2.86619 14.9246 2.87409 14.9138C2.88199 14.903 2.88989 14.8922 2.89779 14.8814C2.90569 14.8706 2.91359 14.8599 2.9215 14.8491C2.92941 14.8383 2.93732 14.8275 2.94523 14.8167C2.95314 14.8059 2.96105 14.7951 2.96897 14.7842C2.97688 14.7734 2.9848 14.7626 2.99272 14.7518C3.00064 14.741 3.00856 14.7302 3.01649 14.7194C3.02441 14.7085 3.03234 14.6977 3.04027 14.6869C3.0482 14.6761 3.05613 14.6652 3.06407 14.6544C3.072 14.6436 3.07993 14.6327 3.08787 14.6219C3.09581 14.611 3.10375 14.6002 3.11169 14.5894C3.11964 14.5785 3.12758 14.5677 3.13553 14.5568C3.14347 14.546 3.15142 14.5351 3.15937 14.5242C3.16732 14.5134 3.17528 14.5025 3.18323 14.4917C3.19119 14.4808 3.19914 14.4699 3.2071 14.4591C3.21506 14.4482 3.22302 14.4373 3.23099 14.4265C3.23895 14.4156 3.24691 14.4047 3.25488 14.3938C3.26285 14.383 3.27082 14.3721 3.27879 14.3612C3.28676 14.3503 3.29473 14.3394 3.30271 14.3285C3.31068 14.3176 3.31866 14.3067 3.32664 14.2959C3.33462 14.285 3.3426 14.2741 3.35058 14.2632C3.35856 14.2523 3.36655 14.2414 3.37453 14.2305C3.38252 14.2195 3.39051 14.2086 3.3985 14.1977C3.40649 14.1868 3.41448 14.1759 3.42247 14.165C3.43047 14.1541 3.43846 14.1432 3.44646 14.1322C3.45446 14.1213 3.46245 14.1104 3.47045 14.0995C3.47846 14.0885 3.48646 14.0776 3.49446 14.0667C3.50247 14.0558 3.51047 14.0448 3.51848 14.0339C3.52649 14.023 3.53449 14.012 3.54251 14.0011C3.55052 13.9901 3.55853 13.9792 3.56654 13.9683C3.57456 13.9573 3.58257 13.9464 3.59059 13.9354C3.59861 13.9245 3.60663 13.9135 3.61465 13.9026C3.62267 13.8916 3.63069 13.8807 3.63871 13.8697C3.64673 13.8588 3.65476 13.8478 3.66279 13.8368C3.67081 13.8259 3.67884 13.8149 3.68687 13.804C3.6949 13.793 3.70293 13.782 3.71096 13.7711C3.719 13.7601 3.72703 13.7491 3.73506 13.7382C3.7431 13.7272 3.75114 13.7162 3.75917 13.7052C3.76721 13.6943 3.77525 13.6833 3.78329 13.6723C3.79133 13.6613 3.79938 13.6503 3.80742 13.6394C3.81546 13.6284 3.82351 13.6174 3.83156 13.6064C3.8396 13.5954 3.84765 13.5844 3.8557 13.5734C3.86375 13.5624 3.8718 13.5514 3.87985 13.5404C3.8879 13.5295 3.89595 13.5185 3.90401 13.5075C3.91206 13.4965 3.92012 13.4855 3.92817 13.4745C3.93623 13.4635 3.94429 13.4525 3.95235 13.4415C3.96041 13.4305 3.96847 13.4194 3.97653 13.4084C3.98459 13.3974 3.99265 13.3864 4.00071 13.3754C4.00878 13.3644 4.01684 13.3534 4.02491 13.3424C4.03297 13.3314 4.04104 13.3203 4.04911 13.3093C4.05718 13.2983 4.06525 13.2873 4.07332 13.2763C4.08139 13.2653 4.08946 13.2542 4.09753 13.2432C4.1056 13.2322 4.11367 13.2212 4.12175 13.2101C4.12982 13.1991 4.1379 13.1881 4.14597 13.1771C4.15405 13.166 4.16213 13.155 4.17021 13.144C4.17828 13.1329 4.18636 13.1219 4.19444 13.1109C4.20252 13.0998 4.2106 13.0888 4.21869 13.0778C4.22677 13.0667 4.23485 13.0557 4.24293 13.0447C4.25102 13.0336 4.2591 13.0226 4.26719 13.0115C4.27527 13.0005 4.28336 12.9895 4.29144 12.9784C4.29953 12.9674 4.30762 12.9563 4.31571 12.9453C4.3238 12.9342 4.33189 12.9232 4.33997 12.9122C4.34806 12.9011 4.35616 12.8901 4.36425 12.879C4.37234 12.868 4.38043 12.8569 4.38852 12.8459C4.39662 12.8348 4.40471 12.8238 4.4128 12.8127C4.4209 12.8017 4.42899 12.7906 4.43709 12.7795C4.44518 12.7685 4.45328 12.7574 4.46138 12.7464C4.46947 12.7353 4.47757 12.7243 4.48567 12.7132C4.49377 12.7022 4.50187 12.6911 4.50996 12.68C4.51806 12.669 4.52616 12.6579 4.53426 12.6469C4.54236 12.6358 4.55047 12.6247 4.55857 12.6137C4.56667 12.6026 4.57477 12.5915 4.58287 12.5805C4.59097 12.5694 4.59908 12.5584 4.60718 12.5473C4.61528 12.5362 4.62339 12.5252 4.63149 12.5141C4.63959 12.503 4.6477 12.492 4.6558 12.4809C4.66391 12.4698 4.67201 12.4588 4.68012 12.4477C4.68823 12.4366 4.69633 12.4256 4.70444 12.4145C4.71254 12.4034 4.72065 12.3923 4.72876 12.3813C4.73687 12.3702 4.74497 12.3591 4.75308 12.3481C4.76119 12.337 4.7693 12.3259 4.7774 12.3149C4.78551 12.3038 4.79362 12.2927 4.80173 12.2816C4.80984 12.2706 4.81795 12.2595 4.82606 12.2484C4.83417 12.2373 4.84227 12.2263 4.85038 12.2152C4.85849 12.2041 4.8666 12.193 4.87471 12.182C4.88282 12.1709 4.89093 12.1598 4.89904 12.1488C4.90715 12.1377 4.91526 12.1266 4.92337 12.1155C4.93148 12.1045 4.93959 12.0934 4.94771 12.0823C4.95582 12.0712 4.96393 12.0602 4.97204 12.0491C4.98015 12.038 4.98826 12.0269 4.99637 12.0159C5.00448 12.0048 5.01259 11.9937 5.0207 11.9826C5.02881 11.9716 5.03692 11.9605 5.04503 11.9494C5.05314 11.9383 5.06125 11.9273 5.06936 11.9162C5.07748 11.9051 5.08559 11.894 5.0937 11.883C5.10181 11.8719 5.10992 11.8608 5.11803 11.8497C5.12614 11.8387 5.13425 11.8276 5.14236 11.8165C5.15047 11.8054 5.15858 11.7944 5.16669 11.7833C5.1748 11.7722 5.18291 11.7611 5.19101 11.7501C5.19912 11.739 5.20723 11.7279 5.21534 11.7169C5.22345 11.7058 5.23156 11.6947 5.23967 11.6836C5.24778 11.6726 5.25588 11.6615 5.26399 11.6504C5.2721 11.6394 5.28021 11.6283 5.28831 11.6172C5.29642 11.6061 5.30453 11.5951 5.31263 11.584C5.32074 11.5729 5.32885 11.5619 5.33695 11.5508C5.34506 11.5397 5.35316 11.5287 5.36127 11.5176C5.36937 11.5065 5.37748 11.4955 5.38558 11.4844C5.39369 11.4733 5.40179 11.4623 5.40989 11.4512C5.418 11.4401 5.4261 11.4291 5.4342 11.418C5.44231 11.4069 5.45041 11.3959 5.45851 11.3848C5.46661 11.3737 5.47471 11.3627 5.48281 11.3516C5.49091 11.3406 5.49901 11.3295 5.50711 11.3184C5.51521 11.3074 5.52331 11.2963 5.53141 11.2853C5.53951 11.2742 5.5476 11.2632 5.5557 11.2521C5.5638 11.241 5.5719 11.23 5.57999 11.2189C5.58809 11.2079 5.59618 11.1968 5.60428 11.1858C5.61237 11.1747 5.62046 11.1637 5.62856 11.1526C5.63665 11.1416 5.64474 11.1305 5.65284 11.1195C5.66093 11.1084 5.66902 11.0974 5.67711 11.0863C5.6852 11.0753 5.69329 11.0642 5.70138 11.0532C5.70947 11.0421 5.71755 11.0311 5.72564 11.02C5.73373 11.009 5.74181 10.998 5.7499 10.9869C5.75799 10.9759 5.76607 10.9648 5.77415 10.9538C5.78224 10.9428 5.79032 10.9317 5.7984 10.9207C5.80649 10.9097 5.81457 10.8986 5.82265 10.8876C5.83073 10.8766 5.83881 10.8655 5.84688 10.8545C5.85496 10.8435 5.86304 10.8324 5.87112 10.8214C5.87919 10.8104 5.88727 10.7993 5.89534 10.7883C5.90342 10.7773 5.91149 10.7663 5.91957 10.7552C5.92764 10.7442 5.93571 10.7332 5.94378 10.7222C5.95185 10.7112 5.95992 10.7001 5.96799 10.6891C5.97606 10.6781 5.98412 10.6671 5.99219 10.6561C6.00026 10.6451 6.00832 10.634 6.01639 10.623C6.02445 10.612 6.03251 10.601 6.04057 10.59C6.04864 10.579 6.0567 10.568 6.06476 10.557C6.07282 10.546 6.08087 10.535 6.08893 10.524C6.09699 10.513 6.10504 10.502 6.1131 10.491C6.12115 10.48 6.12921 10.469 6.13726 10.458C6.14531 10.447 6.15336 10.436 6.16141 10.425C6.16946 10.414 6.17751 10.403 6.18556 10.392C6.1936 10.3811 6.20165 10.3701 6.20969 10.3591C6.21774 10.3481 6.22578 10.3371 6.23382 10.3261C6.24186 10.3152 6.2499 10.3042 6.25794 10.2932C6.26598 10.2822 6.27402 10.2712 6.28205 10.2603C6.29009 10.2493 6.29812 10.2383 6.30616 10.2274C6.31419 10.2164 6.32222 10.2054 6.33025 10.1945C6.33828 10.1835 6.34631 10.1725 6.35434 10.1616C6.36236 10.1506 6.37039 10.1396 6.37841 10.1287C6.38644 10.1177 6.39446 10.1068 6.40248 10.0958C6.4105 10.0849 6.41852 10.0739 6.42654 10.063C6.43456 10.052 6.44257 10.0411 6.45059 10.0301C6.4586 10.0192 6.46662 10.0083 6.47463 9.99731C6.48264 9.98637 6.49065 9.97544 6.49866 9.9645C6.50667 9.95357 6.51467 9.94263 6.52268 9.9317C6.53068 9.92077 6.53868 9.90985 6.54668 9.89892C6.55469 9.888 6.56269 9.87707 6.57068 9.86615C6.57868 9.85523 6.58668 9.84431 6.59467 9.8334C6.60267 9.82248 6.61066 9.81157 6.61865 9.80066C6.62664 9.78974 6.63463 9.77884 6.64262 9.76793C6.6506 9.75702 6.65859 9.74612 6.66657 9.73522C6.67455 9.72432 6.68254 9.71342 6.69052 9.70252C6.69849 9.69163 6.70647 9.68073 6.71445 9.66984C6.72242 9.65895 6.7304 9.64806 6.73837 9.63718C6.74634 9.62629 6.75431 9.61541 6.76228 9.60453C6.77025 9.59365 6.77821 9.58277 6.78618 9.5719C6.79414 9.56102 6.8021 9.55015 6.81006 9.53928C6.81802 9.52841 6.82598 9.51755 6.83394 9.50668C6.84189 9.49582 6.84985 9.48496 6.8578 9.4741C6.86575 9.46324 6.8737 9.45239 6.88165 9.44153C6.88959 9.43068 6.89754 9.41983 6.90548 9.40899C6.91343 9.39814 6.92137 9.3873 6.92931 9.37646C6.93725 9.36562 6.94518 9.35478 6.95312 9.34394C6.96105 9.33311 6.96898 9.32228 6.97691 9.31145C6.98485 9.30062 6.99277 9.28979 7.0007 9.27897C7.00862 9.26815 7.01655 9.25733 7.02447 9.24651C7.03239 9.2357 7.04031 9.22488 7.04823 9.21407C7.05614 9.20326 7.06406 9.19246 7.07197 9.18165C7.07988 9.17085 7.08779 9.16005 7.0957 9.14925C7.10361 9.13845 7.11151 9.12766 7.11941 9.11687C7.12732 9.10608 7.13522 9.09529 7.14312 9.0845C7.15101 9.07372 7.15891 9.06294 7.1668 9.05216C7.17469 9.04138 7.18259 9.03061 7.19047 9.01984C7.19836 9.00907 7.20625 8.9983 7.21413 8.98753C7.22201 8.97677 7.22989 8.96601 7.23777 8.95525C7.24565 8.94449 7.25353 8.93374 7.2614 8.92299C7.26927 8.91224 7.27714 8.90149 7.28501 8.89075C7.29288 8.88 7.30074 8.86926 7.30861 8.85853C7.31647 8.84779 7.32433 8.83706 7.33219 8.82633C7.34005 8.8156 7.3479 8.80487 7.35575 8.79415C7.36361 8.78343 7.37145 8.77271 7.3793 8.76199C7.38715 8.75128 7.39499 8.74057 7.40283 8.72986C7.41068 8.71915 7.41851 8.70845 7.42635 8.69775C7.43419 8.68705 7.44202 8.67635 7.44985 8.66566C7.45768 8.65497 7.46551 8.64428 7.47334 8.63359C7.48116 8.62291 7.48898 8.61223 7.4968 8.60155C7.50462 8.59087 7.51244 8.5802 7.52025 8.56953C7.52807 8.55886 7.53588 8.54819 7.54369 8.53753C7.55149 8.52687 7.5593 8.51621 7.5671 8.50556C7.5749 8.4949 7.5827 8.48425 7.5905 8.47361C7.5983 8.46296 7.60609 8.45232 7.61388 8.44168C7.62167 8.43104 7.62946 8.42041 7.63724 8.40978C7.64503 8.39915 7.65281 8.38852 7.66059 8.3779C7.66837 8.36728 7.67614 8.35666 7.68392 8.34605C7.69169 8.33543 7.69946 8.32482 7.70723 8.31422C7.71499 8.30361 7.72276 8.29301 7.73052 8.28242C7.73828 8.27182 7.74603 8.26123 7.75379 8.25064C7.76154 8.24005 7.76929 8.22947 7.77704 8.21889C7.78479 8.20831 7.79253 8.19773 7.80028 8.18716C7.80802 8.17659 7.81576 8.16602 7.82349 8.15546C7.83123 8.1449 7.83896 8.13434 7.84669 8.12378C7.85442 8.11323 7.86214 8.10268 7.86986 8.09214C7.87759 8.08159 7.88531 8.07105 7.89302 8.06052C7.90074 8.04998 7.90845 8.03945 7.91616 8.02892C7.92387 8.01839 7.93158 8.00787 7.93928 7.99735C7.94698 7.98684 7.95468 7.97632 7.96238 7.96581C7.97007 7.95531 7.97777 7.9448 7.98545 7.9343C7.99314 7.9238 8.00083 7.91331 8.00851 7.90282C8.01619 7.89233 8.02387 7.88184 8.03155 7.87136C8.03922 7.86088 8.0469 7.8504 8.05457 7.83993C8.06223 7.82946 8.0699 7.81899 8.07756 7.80853C8.08522 7.79807 8.09288 7.78761 8.10053 7.77716C8.10819 7.76671 8.11584 7.75626 8.12349 7.74582C8.13114 7.73537 8.13878 7.72494 8.14642 7.7145C8.15406 7.70407 8.1617 7.69364 8.16933 7.68322C8.17696 7.6728 8.18459 7.66238 8.19222 7.65197C8.19985 7.64155 8.20747 7.63114 8.21509 7.62074C8.22271 7.61034 8.23032 7.59994 8.23793 7.58955C8.24554 7.57915 8.25315 7.56876 8.26076 7.55838C8.26836 7.548 8.27596 7.53762 8.28356 7.52725C8.29115 7.51687 8.29875 7.50651 8.30633 7.49614C8.31392 7.48578 8.32151 7.47542 8.32909 7.46507C8.33667 7.45472 8.34425 7.44437 8.35182 7.43403C8.3594 7.42369 8.36697 7.41335 8.37453 7.40302C8.3821 7.39269 8.38966 7.38236 8.39722 7.37204C8.40478 7.36172 8.41233 7.3514 8.41988 7.34109C8.42743 7.33078 8.43498 7.32048 8.44252 7.31018C8.45007 7.29988 8.45761 7.28958 8.46514 7.2793C8.47268 7.26901 8.48021 7.25872 8.48773 7.24845C8.49526 7.23817 8.50278 7.2279 8.5103 7.21763C8.51782 7.20736 8.52534 7.1971 8.53285 7.18684C8.54036 7.17659 8.54786 7.16634 8.55537 7.15609C8.56287 7.14585 8.57037 7.13561 8.57786 7.12537C8.58536 7.11514 8.59285 7.10491 8.60034 7.09469C8.60782 7.08447 8.6153 7.07425 8.62278 7.06404C8.63026 7.05383 8.63773 7.04362 8.6452 7.03342C8.65267 7.02322 8.66014 7.01303 8.6676 7.00284C8.67506 6.99265 8.68252 6.98247 8.68997 6.97229C8.69743 6.96211 8.70487 6.95194 8.71232 6.94178C8.71976 6.93161 8.7272 6.92145 8.73464 6.9113C8.74208 6.90115 8.74951 6.891 8.75693 6.88086C8.76436 6.87071 8.77178 6.86058 8.7792 6.85045C8.78662 6.84032 8.79404 6.83019 8.80145 6.82008C8.80886 6.80996 8.81626 6.79984 8.82366 6.78974C8.83106 6.77963 8.83846 6.76953 8.84585 6.75944C8.85325 6.74934 8.86063 6.73926 8.86802 6.72917C8.8754 6.71909 8.88278 6.70902 8.89015 6.69895C8.89753 6.68888 8.9049 6.67881 8.91226 6.66875C8.91963 6.6587 8.92699 6.64864 8.93435 6.6386C8.9417 6.62855 8.94906 6.61851 8.9564 6.60848C8.96375 6.59845 8.97109 6.58842 8.97843 6.5784C8.98577 6.56838 8.9931 6.55837 9.00043 6.54836C9.00776 6.53835 9.01509 6.52835 9.02241 6.51835C9.02973 6.50836 9.03704 6.49837 9.04435 6.48839C9.05166 6.47841 9.05897 6.46843 9.06627 6.45846C9.07357 6.44849 9.08087 6.43853 9.08816 6.42857C9.09545 6.41861 9.10274 6.40866 9.11002 6.39872C9.1173 6.38878 9.12458 6.37884 9.13185 6.36891C9.13913 6.35898 9.1464 6.34905 9.15366 6.33913C9.16092 6.32922 9.16818 6.31931 9.17543 6.3094C9.18269 6.2995 9.18994 6.2896 9.19718 6.27971C9.20442 6.26982 9.21166 6.25993 9.2189 6.25005C9.22613 6.24017 9.23336 6.2303 9.24058 6.22044C9.24781 6.21057 9.25503 6.20072 9.26224 6.19086C9.26946 6.18101 9.27667 6.17117 9.28387 6.16133C9.29108 6.15149 9.29827 6.14166 9.30547 6.13184C9.31266 6.12201 9.31985 6.1122 9.32704 6.10239C9.33422 6.09258 9.3414 6.08277 9.34858 6.07298C9.35575 6.06318 9.36292 6.05339 9.37009 6.04361C9.37725 6.03382 9.38441 6.02405 9.39156 6.01428C9.39872 6.00451 9.40587 5.99475 9.41301 5.98499C9.42015 5.97524 9.42729 5.96549 9.43443 5.95575C9.44156 5.94601 9.44869 5.93627 9.45581 5.92655C9.46294 5.91682 9.47005 5.9071 9.47717 5.89739C9.48428 5.88767 9.49139 5.87797 9.49849 5.86827C9.50559 5.85857 9.51269 5.84888 9.51978 5.8392C9.52687 5.82951 9.53396 5.81984 9.54104 5.81017C9.54812 5.8005 9.5552 5.79084 9.56227 5.78118C9.56934 5.77152 9.57641 5.76188 9.58347 5.75224C9.59053 5.7426 9.59758 5.73296 9.60463 5.72334C9.61168 5.71371 9.61872 5.70409 9.62576 5.69448C9.6328 5.68487 9.63983 5.67527 9.64686 5.66567C9.65389 5.65607 9.66091 5.64649 9.66793 5.6369C9.67495 5.62732 9.68196 5.61775 9.68896 5.60818C9.69597 5.59862 9.70297 5.58906 9.70996 5.57951C9.71696 5.56995 9.72395 5.56041 9.73093 5.55087C9.73792 5.54134 9.7449 5.53181 9.75187 5.52229C9.75884 5.51277 9.76581 5.50325 9.77277 5.49375C9.77973 5.48424 9.78669 5.47474 9.79364 5.46525C9.80059 5.45576 9.80753 5.44628 9.81447 5.4368C9.82141 5.42733 9.82834 5.41786 9.83527 5.4084C9.8422 5.39894 9.84912 5.38949 9.85604 5.38004C9.86295 5.3706 9.86987 5.36116 9.87677 5.35173C9.88368 5.3423 9.89058 5.33288 9.89747 5.32347C9.90436 5.31406 9.91125 5.30465 9.91813 5.29526C9.92501 5.28586 9.93189 5.27647 9.93876 5.26709C9.94563 5.25771 9.9525 5.24833 9.95935 5.23897C9.96621 5.2296 9.97307 5.22024 9.97991 5.2109C9.98676 5.20155 9.9936 5.1922 10.0004 5.18287C10.0073 5.17354 10.0141 5.16421 10.0209 5.15489C10.0277 5.14558 10.0346 5.13627 10.0414 5.12697C10.0482 5.11767 10.055 5.10837 10.0618 5.09909C10.0686 5.0898 10.0754 5.08053 10.0822 5.07126C10.089 5.06199 10.0957 5.05273 10.1025 5.04348C10.1093 5.03422 10.1161 5.02498 10.1228 5.01575C10.1296 5.00651 10.1363 4.99728 10.1431 4.98806C10.1499 4.97884 10.1566 4.96963 10.1633 4.96043C10.1701 4.95123 10.1768 4.94204 10.1835 4.93285C10.1903 4.92366 10.197 4.91449 10.2037 4.90532C10.2104 4.89615 10.2171 4.88699 10.2238 4.87784C10.2305 4.86869 10.2372 4.85954 10.2439 4.85041C10.2506 4.84127 10.2573 4.83215 10.264 4.82303C10.2706 4.81391 10.2773 4.8048 10.284 4.7957C10.2906 4.7866 10.2973 4.77751 10.304 4.76842C10.3106 4.75934 10.3172 4.75027 10.3239 4.7412C10.3305 4.73213 10.3372 4.72307 10.3438 4.71403C10.3504 4.70498 10.357 4.69594 10.3637 4.6869C10.3703 4.67787 10.3769 4.66885 10.3835 4.65984C10.3901 4.65082 10.3967 4.64182 10.4033 4.63282C10.4098 4.62382 10.4164 4.61484 10.423 4.60586C10.4296 4.59688 10.4362 4.58791 10.4427 4.57895C10.4493 4.56998 10.4558 4.56103 10.4624 4.55209C10.4689 4.54315 10.4755 4.53421 10.482 4.52528C10.4885 4.51636 10.4951 4.50744 10.5016 4.49853C10.5081 4.48963 10.5146 4.48073 10.5212 4.47184C10.5277 4.46295 10.5342 4.45407 10.5407 4.4452C10.5472 4.43632 10.5537 4.42746 10.5601 4.41861C10.5666 4.40975 10.5731 4.40091 10.5796 4.39208C10.586 4.38324 10.5925 4.37441 10.599 4.3656C10.6054 4.35678 10.6119 4.34797 10.6183 4.33917C10.6248 4.33037 10.6312 4.32158 10.6376 4.3128C10.6441 4.30402 10.6505 4.29525 10.6569 4.28649C10.6633 4.27773 10.6697 4.26898 10.6761 4.26023C10.6825 4.25149 10.6889 4.24276 10.6953 4.23403C10.7017 4.22531 10.7081 4.21659 10.7145 4.20789C10.7208 4.19918 10.7272 4.19048 10.7336 4.1818C10.7399 4.17311 10.7463 4.16443 10.7526 4.15577C10.759 4.1471 10.7653 4.13844 10.7716 4.12979C10.778 4.12114 10.7843 4.1125 10.7906 4.10387C10.797 4.09524 10.8033 4.08662 10.8096 4.07801C10.8159 4.0694 10.8222 4.0608 10.8285 4.0522C10.8348 4.04361 10.841 4.03503 10.8473 4.02646C10.8536 4.01789 10.8599 4.00932 10.8661 4.00077C10.8724 3.99222 10.8787 3.98367 10.8849 3.97514C10.8912 3.96661 10.8974 3.95808 10.9036 3.94957C10.9099 3.94105 10.9161 3.93255 10.9223 3.92405C10.9285 3.91556 10.9348 3.90707 10.941 3.8986C10.9472 3.89012 10.9534 3.88166 10.9596 3.8732C10.9657 3.86475 10.9719 3.8563 10.9781 3.84787C10.9843 3.83943 10.9905 3.83101 10.9966 3.82259C11.0028 3.81417 11.0089 3.80577 11.0151 3.79737C11.0212 3.78898 11.0274 3.78059 11.0335 3.77222C11.0396 3.76384 11.0458 3.75547 11.0519 3.74712C11.058 3.73876 11.0641 3.73042 11.0702 3.72208C11.0763 3.71375 11.0824 3.70542 11.0885 3.6971C11.0946 3.68879 11.1007 3.68048 11.1068 3.67219C11.1128 3.66389 11.1189 3.65561 11.125 3.64733C11.131 3.63906 11.1371 3.63079 11.1431 3.62254C11.1492 3.61429 11.1552 3.60604 11.1612 3.59781C11.1673 3.58958 11.1733 3.58135 11.1793 3.57314C11.1853 3.56493 11.1913 3.55672 11.1973 3.54853C11.2033 3.54034 11.2093 3.53216 11.2153 3.52398C11.2213 3.51581 11.2273 3.50765 11.2332 3.4995C11.2392 3.49135 11.2452 3.48321 11.2511 3.47508C11.2571 3.46695 11.263 3.45883 11.269 3.45072C11.2749 3.44261 11.2808 3.43451 11.2868 3.42642C11.2927 3.41834 11.2986 3.41026 11.3045 3.40219C11.3104 3.39413 11.3163 3.38607 11.3222 3.37802C11.3281 3.36998 11.334 3.36194 11.3399 3.35392C11.3457 3.34589 11.3516 3.33788 11.3575 3.32988C11.3633 3.32187 11.3692 3.31388 11.375 3.3059C11.3809 3.29792 11.3867 3.28995 11.3925 3.28199C11.3984 3.27403 11.4042 3.26608 11.41 3.25814C11.4158 3.2502 11.4216 3.24227 11.4274 3.23436C11.4332 3.22644 11.439 3.21853 11.4448 3.21064C11.4506 3.20274 11.4563 3.19486 11.4621 3.18698C11.4679 3.17911 11.4736 3.17125 11.4794 3.1634C11.4851 3.15554 11.4909 3.1477 11.4966 3.13987C11.5023 3.13204 11.5081 3.12423 11.5138 3.11642C11.5195 3.10861 11.5252 3.10081 11.5309 3.09303C11.5366 3.08524 11.5423 3.07747 11.548 3.0697C11.5537 3.06194 11.5594 3.05419 11.565 3.04645C11.5707 3.03871 11.5764 3.03098 11.582 3.02326C11.5877 3.01554 11.5933 3.00783 11.5989 3.00013C11.6046 2.99244 11.6102 2.98475 11.6158 2.97708C11.6214 2.96941 11.6271 2.96174 11.6327 2.95409C11.6383 2.94644 11.6439 2.9388 11.6494 2.93117C11.655 2.92354 11.6606 2.91592 11.6662 2.90832C11.6718 2.90071 11.6773 2.89312 11.6829 2.88553C11.6884 2.87795 11.694 2.87038 11.6995 2.86282C11.705 2.85526 11.7106 2.84771 11.7161 2.84017C11.7216 2.83263 11.7271 2.82511 11.7326 2.81759C11.7381 2.81008 11.7436 2.80257 11.7491 2.79508C11.7546 2.78759 11.7601 2.78011 11.7655 2.77264C11.771 2.76517 11.7765 2.75772 11.7819 2.75027C11.7874 2.74282 11.7928 2.73539 11.7983 2.72797C11.8037 2.72055 11.8091 2.71314 11.8145 2.70574C11.82 2.69834 11.8254 2.69095 11.8308 2.68358C11.8362 2.6762 11.8416 2.66884 11.8469 2.66149C11.8523 2.65413 11.8577 2.64679 11.8631 2.63947C11.8684 2.63214 11.8738 2.62482 11.8791 2.61752C11.8845 2.61021 11.8898 2.60292 11.8952 2.59564C11.9005 2.58836 11.9058 2.58109 11.9111 2.57383C11.9165 2.56657 11.9218 2.55933 11.9271 2.55209C11.9324 2.54486 11.9376 2.53764 11.9429 2.53043C11.9482 2.52322 11.9535 2.51602 11.9587 2.50884C11.964 2.50165 11.9693 2.49448 11.9745 2.48732C11.9797 2.48016 11.985 2.47301 11.9902 2.46587C11.9954 2.45874 12.0006 2.45161 12.0059 2.4445C12.0111 2.43739 12.0163 2.43028 12.0215 2.4232C12.0266 2.41611 12.0318 2.40903 12.037 2.40197C12.0422 2.3949 12.0473 2.38785 12.0525 2.38081C12.0577 2.37377 12.0628 2.36674 12.0679 2.35973C12.0731 2.35272 12.0782 2.34571 12.0833 2.33872C12.0884 2.33173 12.0935 2.32475 12.0986 2.31779C12.1038 2.31082 12.1088 2.30387 12.1139 2.29693C12.119 2.28999 12.1241 2.28306 12.1291 2.27614C12.1342 2.26923 12.1393 2.26232 12.1443 2.25543C12.1494 2.24854 12.1544 2.24166 12.1594 2.23479C12.1645 2.22793 12.1695 2.22107 12.1745 2.21423C12.1795 2.20739 12.1845 2.20056 12.1895 2.19375C12.1945 2.18693 12.1995 2.18013 12.2044 2.17334C12.2094 2.16655 12.2144 2.15977 12.2193 2.153C12.2243 2.14624 12.2292 2.13948 12.2342 2.13274C12.2391 2.126 12.244 2.11928 12.2489 2.11256C12.2539 2.10585 12.2588 2.09914 12.2637 2.09246C12.2686 2.08577 12.2735 2.07909 12.2783 2.07243C12.2832 2.06576 12.2881 2.05911 12.2929 2.05247C12.2978 2.04583 12.3027 2.03921 12.3075 2.0326C12.3123 2.02599 12.3172 2.01939 12.322 2.0128C12.3268 2.00621 12.3316 1.99964 12.3364 1.99308C12.3413 1.98652 12.346 1.97997 12.3508 1.97344C12.3556 1.9669 12.3604 1.96038 12.3652 1.95387C12.3699 1.94736 12.3747 1.94087 12.3794 1.93439C12.3842 1.9279 12.3889 1.92143 12.3936 1.91498C12.3984 1.90852 12.4031 1.90208 12.4078 1.89565C12.4125 1.88922 12.4172 1.8828 12.4219 1.8764C12.4266 1.86999 12.4313 1.8636 12.4359 1.85722C12.4406 1.85085 12.4453 1.84448 12.4499 1.83813C12.4546 1.83178 12.4592 1.82544 12.4638 1.81912C12.4685 1.8128 12.4731 1.80648 12.4777 1.80019C12.4823 1.79389 12.4869 1.7876 12.4915 1.78133C12.4961 1.77506 12.5007 1.7688 12.5053 1.76256C12.5098 1.75632 12.5144 1.75009 12.519 1.74387C12.5235 1.73765 12.5281 1.73145 12.5326 1.72525C12.5371 1.71907 12.5416 1.71289 12.5462 1.70672C12.5507 1.70056 12.5552 1.69441 12.5597 1.68828C12.5642 1.68214 12.5686 1.67602 12.5731 1.66991C12.5776 1.6638 12.5821 1.6577 12.5865 1.65162C12.591 1.64554 12.5954 1.63947 12.5998 1.63341C12.6043 1.62736 12.6087 1.62132 12.6131 1.61529C12.6175 1.60926 12.6219 1.60325 12.6263 1.59725C12.6307 1.59125 12.6351 1.58526 12.6395 1.57929C12.6439 1.57332 12.6482 1.56736 12.6526 1.56141C12.6569 1.55547 12.6613 1.54954 12.6656 1.54362C12.6699 1.5377 12.6743 1.5318 12.6786 1.52591C12.6829 1.52002 12.6872 1.51415 12.6915 1.50829C12.6958 1.50242 12.7001 1.49657 12.7043 1.49074C12.7086 1.48491 12.7129 1.47909 12.7171 1.47328C12.7214 1.46748 12.7256 1.46168 12.7298 1.45591C12.7341 1.45013 12.7383 1.44437 12.7425 1.43862C12.7467 1.43287 12.7509 1.42713 12.7551 1.42141C12.7593 1.41569 12.7635 1.40998 12.7676 1.40429C12.7718 1.39859 12.776 1.39291 12.7801 1.38725C12.7843 1.38158 12.7884 1.37593 12.7925 1.3703C12.7967 1.36466 12.8008 1.35904 12.8049 1.35343C12.809 1.34782 12.8131 1.34223 12.8172 1.33665C12.8213 1.33107 12.8253 1.32551 12.8294 1.31995C12.8335 1.3144 12.8375 1.30887 12.8416 1.30334C12.8456 1.29782 12.8496 1.29232 12.8537 1.28682C12.8577 1.28133 12.8617 1.27585 12.8657 1.27039C12.8697 1.26492 12.8737 1.25947 12.8777 1.25404C12.8817 1.2486 12.8856 1.24318 12.8896 1.23777C12.8935 1.23237 12.8975 1.22697 12.9014 1.2216C12.9054 1.21622 12.9093 1.21086 12.9132 1.20551C12.9171 1.20016 12.921 1.19483 12.9249 1.18951C12.9288 1.18419 12.9327 1.17888 12.9366 1.17359C12.9405 1.1683 12.9443 1.16303 12.9482 1.15777C12.952 1.15251 12.9559 1.14726 12.9597 1.14203C12.9635 1.1368 12.9674 1.13158 12.9712 1.12638C12.975 1.12118 12.9788 1.11599 12.9826 1.11082C12.9863 1.10565 12.9901 1.10049 12.9939 1.09535C12.9977 1.09021 13.0014 1.08508 13.0052 1.07997C13.0089 1.07486 13.0126 1.06976 13.0164 1.06468C13.0201 1.05959 13.0238 1.05453 13.0275 1.04947C13.0312 1.04442 13.0349 1.03938 13.0386 1.03436L12.2318 0.443519C12.2281 0.448542 12.2244 0.45358 12.2207 0.458632C12.217 0.463685 12.2133 0.468753 12.2096 0.473835C12.2058 0.478918 12.2021 0.484015 12.1984 0.489128C12.1946 0.49424 12.1909 0.499367 12.1871 0.504509C12.1833 0.509651 12.1796 0.514808 12.1758 0.51998C12.172 0.525152 12.1682 0.530339 12.1644 0.535541C12.1606 0.540742 12.1567 0.545958 12.1529 0.551189C12.1491 0.556419 12.1452 0.561665 12.1414 0.566926C12.1375 0.572186 12.1337 0.577461 12.1298 0.582752C12.1259 0.588041 12.122 0.593345 12.1181 0.598665C12.1143 0.603983 12.1103 0.609318 12.1064 0.614665C12.1025 0.620014 12.0986 0.625377 12.0946 0.630754C12.0907 0.636132 12.0868 0.641524 12.0828 0.64693C12.0788 0.652337 12.0749 0.657757 12.0709 0.663194C12.0669 0.668629 12.0629 0.674079 12.0589 0.679544C12.0549 0.685008 12.0509 0.690486 12.0469 0.69598C12.0429 0.701474 12.0388 0.706981 12.0348 0.712502C12.0307 0.718025 12.0267 0.723562 12.0226 0.729112C12.0186 0.734663 12.0145 0.740229 12.0104 0.745807C12.0063 0.751387 12.0022 0.75698 11.9981 0.762589C11.994 0.768197 11.9899 0.77382 11.9857 0.779455C11.9816 0.785092 11.9775 0.790742 11.9733 0.796408C11.9692 0.802073 11.965 0.807751 11.9609 0.813445C11.9567 0.819138 11.9525 0.824846 11.9483 0.830567C11.9441 0.836288 11.9399 0.842024 11.9357 0.847774C11.9315 0.853523 11.9273 0.859288 11.9231 0.865064C11.9188 0.870843 11.9146 0.876635 11.9103 0.882441C11.9061 0.888245 11.9018 0.894065 11.8975 0.899899C11.8933 0.905732 11.889 0.911582 11.8847 0.917443C11.8804 0.923304 11.8761 0.92918 11.8718 0.935069C11.8675 0.940959 11.8631 0.946862 11.8588 0.952779C11.8545 0.958696 11.8501 0.964628 11.8458 0.970572C11.8414 0.976517 11.8371 0.982475 11.8327 0.988449C11.8283 0.994421 11.8239 1.00041 11.8195 1.00641C11.8151 1.01241 11.8107 1.01842 11.8063 1.02445C11.8019 1.03048 11.7975 1.03652 11.7931 1.04257C11.7886 1.04863 11.7842 1.0547 11.7797 1.06078C11.7753 1.06686 11.7708 1.07295 11.7663 1.07906C11.7619 1.08517 11.7574 1.0913 11.7529 1.09743C11.7484 1.10357 11.7439 1.10972 11.7394 1.11588C11.7349 1.12205 11.7303 1.12822 11.7258 1.13441C11.7213 1.1406 11.7167 1.14681 11.7122 1.15302C11.7076 1.15924 11.7031 1.16547 11.6985 1.17172C11.6939 1.17796 11.6893 1.18422 11.6847 1.19049C11.6801 1.19676 11.6755 1.20305 11.6709 1.20934C11.6663 1.21564 11.6617 1.22195 11.6571 1.22828C11.6524 1.2346 11.6478 1.24094 11.6431 1.24729C11.6385 1.25364 11.6338 1.26001 11.6292 1.26638C11.6245 1.27276 11.6198 1.27915 11.6151 1.28555C11.6104 1.29196 11.6057 1.29837 11.601 1.30481C11.5963 1.31123 11.5916 1.31768 11.5869 1.32413C11.5821 1.33059 11.5774 1.33706 11.5726 1.34354C11.5679 1.35002 11.5631 1.35652 11.5584 1.36303C11.5536 1.36954 11.5488 1.37606 11.544 1.38259C11.5393 1.38913 11.5345 1.39568 11.5297 1.40224C11.5249 1.4088 11.52 1.41537 11.5152 1.42196C11.5104 1.42854 11.5056 1.43514 11.5007 1.44176C11.4959 1.44837 11.491 1.45499 11.4862 1.46163C11.4813 1.46827 11.4764 1.47492 11.4716 1.48158C11.4667 1.48825 11.4618 1.49492 11.4569 1.50161C11.452 1.5083 11.4471 1.51501 11.4422 1.52172C11.4372 1.52843 11.4323 1.53516 11.4274 1.5419C11.4224 1.54864 11.4175 1.55539 11.4125 1.56216C11.4076 1.56893 11.4026 1.5757 11.3976 1.5825C11.3927 1.58929 11.3877 1.59609 11.3827 1.60291C11.3777 1.60972 11.3727 1.61655 11.3677 1.62339C11.3627 1.63023 11.3577 1.63709 11.3526 1.64395C11.3476 1.65082 11.3426 1.6577 11.3375 1.66459C11.3325 1.67148 11.3274 1.67838 11.3224 1.6853C11.3173 1.69222 11.3122 1.69914 11.3071 1.70609C11.3021 1.71303 11.297 1.71998 11.2919 1.72695C11.2868 1.73391 11.2817 1.74089 11.2765 1.74788C11.2714 1.75487 11.2663 1.76187 11.2611 1.76889C11.256 1.7759 11.2509 1.78293 11.2457 1.78997C11.2406 1.79701 11.2354 1.80406 11.2302 1.81113C11.225 1.81819 11.2199 1.82527 11.2147 1.83235C11.2095 1.83944 11.2043 1.84654 11.1991 1.85366C11.1939 1.86077 11.1886 1.86789 11.1834 1.87503C11.1782 1.88217 11.173 1.88932 11.1677 1.89648C11.1625 1.90364 11.1572 1.91081 11.1519 1.918C11.1467 1.92518 11.1414 1.93238 11.1361 1.93959C11.1309 1.9468 11.1256 1.95402 11.1203 1.96125C11.115 1.96849 11.1097 1.97573 11.1044 1.98299C11.099 1.99025 11.0937 1.99751 11.0884 2.00479C11.083 2.01208 11.0777 2.01937 11.0724 2.02667C11.067 2.03398 11.0617 2.04129 11.0563 2.04862C11.0509 2.05595 11.0455 2.06329 11.0402 2.07064C11.0348 2.07799 11.0294 2.08536 11.024 2.09273C11.0186 2.10011 11.0132 2.1075 11.0078 2.11489C11.0023 2.12229 10.9969 2.1297 10.9915 2.13713C10.986 2.14455 10.9806 2.15198 10.9751 2.15943C10.9697 2.16687 10.9642 2.17433 10.9588 2.1818C10.9533 2.18927 10.9478 2.19675 10.9423 2.20424C10.9368 2.21173 10.9313 2.21923 10.9258 2.22675C10.9203 2.23426 10.9148 2.24179 10.9093 2.24933C10.9038 2.25686 10.8983 2.26441 10.8927 2.27197C10.8872 2.27953 10.8816 2.28711 10.8761 2.29469C10.8705 2.30227 10.865 2.30987 10.8594 2.31748C10.8538 2.32508 10.8482 2.3327 10.8427 2.34033C10.8371 2.34796 10.8315 2.3556 10.8259 2.36325C10.8203 2.3709 10.8147 2.37856 10.809 2.38624C10.8034 2.39391 10.7978 2.4016 10.7922 2.40929C10.7865 2.41699 10.7809 2.4247 10.7752 2.43242C10.7696 2.44013 10.7639 2.44786 10.7582 2.45561C10.7526 2.46335 10.7469 2.4711 10.7412 2.47886C10.7355 2.48663 10.7298 2.4944 10.7241 2.50219C10.7184 2.50997 10.7127 2.51777 10.707 2.52558C10.7013 2.53338 10.6955 2.5412 10.6898 2.54903C10.6841 2.55686 10.6783 2.5647 10.6726 2.57255C10.6668 2.58041 10.6611 2.58827 10.6553 2.59614C10.6495 2.60402 10.6438 2.6119 10.638 2.61979C10.6322 2.62769 10.6264 2.6356 10.6206 2.64351C10.6148 2.65143 10.609 2.65936 10.6032 2.6673C10.5974 2.67524 10.5916 2.68318 10.5857 2.69114C10.5799 2.6991 10.5741 2.70708 10.5682 2.71506C10.5624 2.72304 10.5565 2.73103 10.5507 2.73903C10.5448 2.74704 10.5389 2.75505 10.5331 2.76308C10.5272 2.7711 10.5213 2.77913 10.5154 2.78718C10.5095 2.79523 10.5036 2.80328 10.4977 2.81135C10.4918 2.81942 10.4859 2.82749 10.48 2.83558C10.474 2.84367 10.4681 2.85177 10.4622 2.85988C10.4562 2.86799 10.4503 2.87611 10.4443 2.88424C10.4384 2.89237 10.4324 2.90051 10.4264 2.90866C10.4205 2.91681 10.4145 2.92497 10.4085 2.93314C10.4025 2.94131 10.3965 2.9495 10.3905 2.95769C10.3845 2.96588 10.3785 2.97408 10.3725 2.9823C10.3665 2.99051 10.3605 2.99873 10.3545 3.00697C10.3484 3.0152 10.3424 3.02344 10.3363 3.0317C10.3303 3.03995 10.3242 3.04822 10.3182 3.05649C10.3121 3.06477 10.3061 3.07305 10.3 3.08135C10.2939 3.08964 10.2878 3.09795 10.2817 3.10626C10.2756 3.11458 10.2695 3.1229 10.2634 3.13124C10.2573 3.13957 10.2512 3.14792 10.2451 3.15628C10.239 3.16463 10.2329 3.173 10.2267 3.18137C10.2206 3.18975 10.2145 3.19813 10.2083 3.20653C10.2022 3.21493 10.196 3.22333 10.1898 3.23175C10.1837 3.24016 10.1775 3.24859 10.1713 3.25703C10.1651 3.26546 10.159 3.27391 10.1528 3.28236C10.1466 3.29082 10.1404 3.29928 10.1342 3.30776C10.128 3.31623 10.1218 3.32472 10.1155 3.33321C10.1093 3.34171 10.1031 3.35021 10.0968 3.35873C10.0906 3.36724 10.0844 3.37576 10.0781 3.3843C10.0719 3.39283 10.0656 3.40137 10.0593 3.40993C10.0531 3.41848 10.0468 3.42704 10.0405 3.43562C10.0343 3.44419 10.028 3.45277 10.0217 3.46136C10.0154 3.46995 10.0091 3.47856 10.0028 3.48717C9.99648 3.49578 9.99016 3.5044 9.98384 3.51303C9.97752 3.52166 9.9712 3.5303 9.96486 3.53895C9.95853 3.5476 9.95219 3.55626 9.94584 3.56492C9.93949 3.57359 9.93314 3.58227 9.92677 3.59096C9.92041 3.59964 9.91404 3.60834 9.90767 3.61704C9.90129 3.62575 9.89491 3.63447 9.88852 3.64319C9.88213 3.65191 9.87574 3.66065 9.86933 3.66939C9.86293 3.67813 9.85652 3.68689 9.8501 3.69565C9.84369 3.70441 9.83726 3.71318 9.83083 3.72196C9.8244 3.73074 9.81797 3.73953 9.81152 3.74833C9.80508 3.75713 9.79863 3.76594 9.79217 3.77475C9.78571 3.78357 9.77925 3.7924 9.77278 3.80123C9.76631 3.81007 9.75983 3.81891 9.75335 3.82777C9.74686 3.83662 9.74037 3.84548 9.73388 3.85435C9.72738 3.86323 9.72088 3.87211 9.71437 3.881C9.70786 3.88989 9.70134 3.89878 9.69481 3.90769C9.68829 3.9166 9.68176 3.92552 9.67522 3.93444C9.66869 3.94337 9.66214 3.9523 9.6556 3.96125C9.64905 3.97019 9.64249 3.97914 9.63593 3.9881C9.62936 3.99707 9.62279 4.00603 9.61622 4.01501C9.60964 4.02399 9.60306 4.03298 9.59647 4.04198C9.58988 4.05097 9.58329 4.05998 9.57669 4.06899C9.57009 4.07801 9.56348 4.08703 9.55686 4.09606C9.55025 4.10509 9.54363 4.11413 9.537 4.12318C9.53038 4.13223 9.52374 4.14129 9.5171 4.15036C9.51046 4.15942 9.50382 4.1685 9.49716 4.17758C9.49051 4.18667 9.48385 4.19576 9.47719 4.20486C9.47052 4.21396 9.46385 4.22307 9.45718 4.23219C9.4505 4.2413 9.44381 4.25043 9.43712 4.25957C9.43043 4.2687 9.42374 4.27784 9.41704 4.287C9.41033 4.29615 9.40363 4.30531 9.39691 4.31448C9.3902 4.32365 9.38348 4.33282 9.37675 4.34201C9.37002 4.35119 9.36329 4.36039 9.35655 4.36959C9.34981 4.37879 9.34306 4.388 9.33631 4.39722C9.32956 4.40644 9.3228 4.41567 9.31604 4.4249C9.30928 4.43414 9.30251 4.44338 9.29573 4.45263C9.28896 4.46189 9.28217 4.47115 9.27539 4.48042C9.2686 4.48968 9.26181 4.49896 9.25501 4.50825C9.24821 4.51753 9.2414 4.52682 9.23459 4.53612C9.22778 4.54543 9.22096 4.55473 9.21414 4.56405C9.20731 4.57337 9.20048 4.58269 9.19365 4.59203C9.18681 4.60136 9.17997 4.6107 9.17313 4.62005C9.16628 4.6294 9.15943 4.63876 9.15257 4.64812C9.14571 4.65749 9.13884 4.66686 9.13197 4.67625C9.1251 4.68563 9.11823 4.69502 9.11134 4.70441C9.10446 4.71381 9.09758 4.72322 9.09068 4.73263C9.08379 4.74204 9.07689 4.75146 9.06998 4.76089C9.06308 4.77032 9.05617 4.77976 9.04925 4.7892C9.04234 4.79864 9.03541 4.8081 9.02849 4.81756C9.02156 4.82702 9.01462 4.83648 9.00769 4.84596C9.00075 4.85543 8.9938 4.86492 8.98685 4.87441C8.9799 4.8839 8.97294 4.8934 8.96598 4.9029C8.95902 4.91241 8.95205 4.92192 8.94508 4.93144C8.93811 4.94097 8.93113 4.95049 8.92415 4.96003C8.91716 4.96957 8.91017 4.97911 8.90318 4.98866C8.89618 4.99821 8.88918 5.00777 8.88218 5.01734C8.87517 5.02691 8.86816 5.03648 8.86114 5.04606C8.85413 5.05564 8.8471 5.06523 8.84008 5.07483C8.83305 5.08442 8.82601 5.09403 8.81898 5.10364C8.81194 5.11325 8.80489 5.12287 8.79784 5.1325C8.79079 5.14212 8.78374 5.15175 8.77668 5.16139C8.76962 5.17103 8.76255 5.18068 8.75548 5.19034C8.74841 5.19999 8.74134 5.20966 8.73425 5.21932C8.72717 5.22899 8.72009 5.23867 8.71299 5.24836C8.7059 5.25804 8.69881 5.26773 8.6917 5.27743C8.6846 5.28713 8.67749 5.29683 8.67038 5.30655C8.66327 5.31626 8.65615 5.32598 8.64903 5.3357C8.6419 5.34543 8.63477 5.35517 8.62764 5.36491C8.62051 5.37465 8.61337 5.38439 8.60622 5.39415C8.59908 5.4039 8.59193 5.41367 8.58478 5.42344C8.57762 5.4332 8.57046 5.44298 8.5633 5.45276C8.55613 5.46255 8.54896 5.47234 8.54179 5.48213C8.53462 5.49193 8.52744 5.50173 8.52025 5.51154C8.51307 5.52135 8.50588 5.53117 8.49868 5.541C8.49149 5.55082 8.48429 5.56065 8.47708 5.57049C8.46988 5.58033 8.46267 5.59017 8.45546 5.60002C8.44824 5.60987 8.44102 5.61973 8.4338 5.6296C8.42657 5.63946 8.41934 5.64933 8.41211 5.65921C8.40488 5.66909 8.39764 5.67897 8.39039 5.68886C8.38315 5.69876 8.3759 5.70865 8.36865 5.71856C8.36139 5.72846 8.35413 5.73837 8.34687 5.74829C8.33961 5.75821 8.33234 5.76813 8.32507 5.77807C8.31779 5.788 8.31052 5.79793 8.30323 5.80788C8.29595 5.81782 8.28867 5.82777 8.28137 5.83773C8.27408 5.84769 8.26678 5.85765 8.25948 5.86762C8.25218 5.87759 8.24488 5.88756 8.23757 5.89755C8.23026 5.90753 8.22294 5.91752 8.21562 5.92751C8.2083 5.93751 8.20098 5.94751 8.19365 5.95752C8.18632 5.96753 8.17898 5.97754 8.17165 5.98756C8.16431 5.99758 8.15696 6.00761 8.14962 6.01764C8.14227 6.02767 8.13492 6.03771 8.12756 6.04776C8.1202 6.0578 8.11284 6.06785 8.10548 6.07791C8.09811 6.08797 8.09074 6.09803 8.08337 6.1081C8.07599 6.11817 8.06861 6.12825 8.06123 6.13833C8.05385 6.14841 8.04646 6.1585 8.03907 6.16859C8.03167 6.17869 8.02428 6.18879 8.01688 6.1989C8.00947 6.209 8.00207 6.21911 7.99466 6.22923C7.98725 6.23935 7.97983 6.24947 7.97242 6.2596C7.965 6.26974 7.95757 6.27987 7.95015 6.29001C7.94272 6.30016 7.93529 6.3103 7.92785 6.32046C7.92042 6.33061 7.91298 6.34077 7.90553 6.35094C7.89809 6.3611 7.89064 6.37127 7.88319 6.38145C7.87573 6.39163 7.86828 6.40181 7.86081 6.412C7.85335 6.42219 7.84589 6.43238 7.83842 6.44258C7.83095 6.45278 7.82347 6.46298 7.816 6.4732C7.80852 6.48341 7.80103 6.49362 7.79355 6.50385C7.78606 6.51407 7.77857 6.5243 7.77108 6.53453C7.76358 6.54477 7.75608 6.55501 7.74858 6.56525C7.74108 6.57549 7.73357 6.58575 7.72606 6.596C7.71855 6.60626 7.71103 6.61652 7.70351 6.62679C7.696 6.63705 7.68847 6.64733 7.68095 6.6576C7.67342 6.66788 7.66589 6.67816 7.65835 6.68845C7.65082 6.69874 7.64328 6.70904 7.63574 6.71934C7.62819 6.72964 7.62065 6.73994 7.6131 6.75025C7.60555 6.76056 7.59799 6.77088 7.59043 6.7812C7.58287 6.79152 7.57531 6.80184 7.56775 6.81218C7.56018 6.82251 7.55261 6.83284 7.54504 6.84319C7.53746 6.85353 7.52988 6.86388 7.5223 6.87423C7.51472 6.88458 7.50714 6.89494 7.49955 6.9053C7.49196 6.91566 7.48437 6.92603 7.47677 6.9364C7.46917 6.94678 7.46157 6.95716 7.45397 6.96754C7.44636 6.97792 7.43876 6.98831 7.43115 6.9987C7.42353 7.0091 7.41592 7.01949 7.4083 7.0299C7.40068 7.0403 7.39306 7.05071 7.38543 7.06112C7.37781 7.07154 7.37018 7.08195 7.36254 7.09238C7.35491 7.1028 7.34727 7.11323 7.33963 7.12366C7.33199 7.13409 7.32435 7.14453 7.3167 7.15498C7.30905 7.16542 7.3014 7.17587 7.29375 7.18632C7.28609 7.19677 7.27844 7.20723 7.27077 7.21769C7.26311 7.22815 7.25545 7.23862 7.24778 7.24909C7.24011 7.25956 7.23244 7.27004 7.22476 7.28052C7.21709 7.291 7.20941 7.30148 7.20172 7.31197C7.19404 7.32246 7.18636 7.33296 7.17867 7.34346C7.17098 7.35396 7.16328 7.36446 7.15559 7.37497C7.14789 7.38548 7.14019 7.39599 7.13249 7.40651C7.12479 7.41703 7.11708 7.42755 7.10937 7.43808C7.10166 7.44861 7.09395 7.45914 7.08624 7.46967C7.07852 7.48021 7.0708 7.49075 7.06308 7.50129C7.05536 7.51184 7.04763 7.52239 7.0399 7.53294C7.03217 7.5435 7.02444 7.55405 7.0167 7.56462C7.00897 7.57518 7.00123 7.58575 6.99349 7.59632C6.98575 7.60689 6.978 7.61746 6.97025 7.62804C6.96251 7.63862 6.95475 7.64921 6.947 7.6598C6.93925 7.67038 6.93149 7.68098 6.92373 7.69157C6.91597 7.70217 6.9082 7.71277 6.90044 7.72338C6.89267 7.73398 6.8849 7.74459 6.87713 7.75521C6.86936 7.76582 6.86158 7.77644 6.8538 7.78706C6.84602 7.79768 6.83824 7.80831 6.83046 7.81894C6.82267 7.82957 6.81488 7.8402 6.80709 7.85084C6.7993 7.86148 6.79151 7.87212 6.78371 7.88276C6.77592 7.89341 6.76812 7.90406 6.76031 7.91471C6.75251 7.92537 6.74471 7.93603 6.7369 7.94669C6.72909 7.95735 6.72128 7.96802 6.71347 7.97869C6.70565 7.98935 6.69783 8.00003 6.69002 8.01071C6.6822 8.02138 6.67437 8.03206 6.66655 8.04275C6.65872 8.05344 6.6509 8.06412 6.64306 8.07482C6.63523 8.08551 6.6274 8.09621 6.61956 8.10691C6.61173 8.11761 6.60389 8.12831 6.59605 8.13902C6.58821 8.14973 6.58036 8.16044 6.57251 8.17115C6.56467 8.18187 6.55682 8.19259 6.54897 8.20331C6.54111 8.21403 6.53326 8.22476 6.5254 8.23549C6.51754 8.24621 6.50968 8.25695 6.50182 8.26768C6.49396 8.27842 6.48609 8.28916 6.47822 8.2999C6.47036 8.31065 6.46249 8.3214 6.45461 8.33215C6.44674 8.3429 6.43886 8.35365 6.43098 8.36441C6.42311 8.37517 6.41523 8.38593 6.40734 8.39669C6.39946 8.40746 6.39157 8.41822 6.38369 8.42899C6.3758 8.43977 6.36791 8.45054 6.36001 8.46132C6.35212 8.4721 6.34423 8.48288 6.33633 8.49366C6.32843 8.50445 6.32053 8.51523 6.31263 8.52602C6.30472 8.53682 6.29682 8.54761 6.28891 8.55841C6.281 8.5692 6.27309 8.58001 6.26518 8.59081C6.25727 8.60161 6.24936 8.61242 6.24144 8.62323C6.23352 8.63404 6.2256 8.64485 6.21768 8.65567C6.20976 8.66649 6.20184 8.67731 6.19391 8.68813C6.18599 8.69895 6.17806 8.70978 6.17013 8.72061C6.1622 8.73143 6.15426 8.74227 6.14633 8.7531C6.1384 8.76394 6.13046 8.77477 6.12252 8.78561C6.11458 8.79645 6.10664 8.8073 6.0987 8.81814C6.09075 8.82899 6.08281 8.83984 6.07486 8.85069C6.06691 8.86154 6.05896 8.8724 6.05101 8.88326C6.04306 8.89412 6.03511 8.90498 6.02715 8.91584C6.01919 8.9267 6.01124 8.93757 6.00328 8.94844C5.99532 8.95931 5.98735 8.97018 5.97939 8.98106C5.97143 8.99193 5.96346 9.00281 5.95549 9.01369C5.94752 9.02457 5.93955 9.03545 5.93158 9.04634C5.92361 9.05722 5.91564 9.06811 5.90766 9.079C5.89968 9.08989 5.89171 9.10078 5.88373 9.11168C5.87575 9.12258 5.86777 9.13348 5.85978 9.14438C5.8518 9.15528 5.84382 9.16618 5.83583 9.17709C5.82784 9.18799 5.81985 9.1989 5.81186 9.20981C5.80387 9.22072 5.79588 9.23164 5.78788 9.24255C5.77989 9.25347 5.77189 9.26439 5.7639 9.27531C5.7559 9.28623 5.7479 9.29715 5.7399 9.30808C5.7319 9.319 5.72389 9.32993 5.71589 9.34086C5.70788 9.35179 5.69988 9.36273 5.69187 9.37366C5.68386 9.38459 5.67585 9.39553 5.66784 9.40647C5.65983 9.41741 5.65182 9.42835 5.6438 9.4393C5.63579 9.45024 5.62777 9.46119 5.61975 9.47213C5.61174 9.48308 5.60372 9.49403 5.5957 9.50499C5.58767 9.51594 5.57965 9.52689 5.57163 9.53785C5.5636 9.54881 5.55558 9.55977 5.54755 9.57073C5.53952 9.58169 5.53149 9.59265 5.52346 9.60362C5.51543 9.61458 5.5074 9.62555 5.49937 9.63652C5.49134 9.64749 5.4833 9.65846 5.47527 9.66943C5.46723 9.6804 5.45919 9.69138 5.45115 9.70235C5.44312 9.71333 5.43508 9.72431 5.42703 9.73529C5.41899 9.74627 5.41095 9.75725 5.40291 9.76824C5.39486 9.77922 5.38682 9.79021 5.37877 9.8012C5.37072 9.81218 5.36267 9.82317 5.35462 9.83417C5.34657 9.84516 5.33852 9.85615 5.33047 9.86715C5.32242 9.87814 5.31437 9.88914 5.30631 9.90014C5.29826 9.91113 5.2902 9.92213 5.28214 9.93314C5.27409 9.94414 5.26603 9.95514 5.25797 9.96615C5.24991 9.97715 5.24185 9.98816 5.23379 9.99917C5.22573 10.0102 5.21766 10.0212 5.2096 10.0322C5.20153 10.0432 5.19347 10.0542 5.1854 10.0652C5.17734 10.0762 5.16927 10.0873 5.1612 10.0983C5.15313 10.1093 5.14506 10.1203 5.13699 10.1313C5.12892 10.1424 5.12085 10.1534 5.11278 10.1644C5.10471 10.1754 5.09663 10.1864 5.08856 10.1975C5.08048 10.2085 5.07241 10.2195 5.06433 10.2306C5.05625 10.2416 5.04818 10.2526 5.0401 10.2636C5.03202 10.2747 5.02394 10.2857 5.01586 10.2967C5.00778 10.3078 4.9997 10.3188 4.99162 10.3298C4.98353 10.3409 4.97545 10.3519 4.96737 10.363C4.95928 10.374 4.9512 10.385 4.94311 10.3961C4.93503 10.4071 4.92694 10.4182 4.91885 10.4292C4.91077 10.4402 4.90268 10.4513 4.89459 10.4623C4.8865 10.4734 4.87841 10.4844 4.87032 10.4955C4.86223 10.5065 4.85414 10.5176 4.84605 10.5286C4.83796 10.5397 4.82986 10.5507 4.82177 10.5618C4.81368 10.5728 4.80558 10.5839 4.79749 10.5949C4.78939 10.606 4.7813 10.617 4.7732 10.6281C4.76511 10.6391 4.75701 10.6502 4.74891 10.6613C4.74082 10.6723 4.73272 10.6834 4.72462 10.6944C4.71652 10.7055 4.70842 10.7165 4.70033 10.7276C4.69223 10.7387 4.68413 10.7497 4.67603 10.7608C4.66792 10.7718 4.65982 10.7829 4.65172 10.794C4.64362 10.805 4.63552 10.8161 4.62742 10.8272C4.61931 10.8382 4.61121 10.8493 4.60311 10.8604C4.595 10.8714 4.5869 10.8825 4.5788 10.8935C4.57069 10.9046 4.56259 10.9157 4.55448 10.9267C4.54638 10.9378 4.53827 10.9489 4.53017 10.96C4.52206 10.971 4.51395 10.9821 4.50585 10.9932C4.49774 11.0042 4.48963 11.0153 4.48153 11.0264C4.47342 11.0374 4.46531 11.0485 4.4572 11.0596C4.4491 11.0707 4.44099 11.0817 4.43288 11.0928C4.42477 11.1039 4.41666 11.1149 4.40855 11.126C4.40045 11.1371 4.39234 11.1482 4.38423 11.1592C4.37612 11.1703 4.36801 11.1814 4.3599 11.1924C4.35179 11.2035 4.34368 11.2146 4.33557 11.2257C4.32746 11.2367 4.31935 11.2478 4.31124 11.2589C4.30313 11.27 4.29502 11.281 4.28691 11.2921C4.2788 11.3032 4.27069 11.3143 4.26258 11.3253C4.25447 11.3364 4.24636 11.3475 4.23825 11.3586C4.23014 11.3696 4.22202 11.3807 4.21391 11.3918C4.2058 11.4029 4.19769 11.4139 4.18958 11.425C4.18147 11.4361 4.17336 11.4472 4.16525 11.4582C4.15714 11.4693 4.14903 11.4804 4.14092 11.4915C4.13281 11.5025 4.1247 11.5136 4.11659 11.5247C4.10848 11.5358 4.10037 11.5468 4.09226 11.5579C4.08415 11.569 4.07604 11.5801 4.06793 11.5911C4.05982 11.6022 4.05171 11.6133 4.0436 11.6244C4.03549 11.6354 4.02738 11.6465 4.01927 11.6576C4.01116 11.6686 4.00305 11.6797 3.99494 11.6908C3.98683 11.7019 3.97873 11.7129 3.97062 11.724C3.96251 11.7351 3.9544 11.7462 3.94629 11.7572C3.93819 11.7683 3.93008 11.7794 3.92197 11.7904C3.91386 11.8015 3.90576 11.8126 3.89765 11.8236C3.88954 11.8347 3.88144 11.8458 3.87333 11.8568C3.86523 11.8679 3.85712 11.879 3.84902 11.8901C3.84091 11.9011 3.83281 11.9122 3.8247 11.9233C3.8166 11.9343 3.8085 11.9454 3.80039 11.9564C3.79229 11.9675 3.78419 11.9786 3.77608 11.9896C3.76798 12.0007 3.75988 12.0118 3.75178 12.0228C3.74368 12.0339 3.73558 12.045 3.72748 12.056C3.71938 12.0671 3.71128 12.0781 3.70318 12.0892C3.69508 12.1003 3.68698 12.1113 3.67888 12.1224C3.67078 12.1334 3.66269 12.1445 3.65459 12.1555C3.64649 12.1666 3.6384 12.1776 3.6303 12.1887C3.62221 12.1998 3.61411 12.2108 3.60602 12.2219C3.59792 12.2329 3.58983 12.244 3.58174 12.255C3.57364 12.2661 3.56555 12.2771 3.55746 12.2882C3.54937 12.2992 3.54128 12.3103 3.53319 12.3213C3.5251 12.3324 3.51701 12.3434 3.50892 12.3544C3.50083 12.3655 3.49274 12.3765 3.48466 12.3876C3.47657 12.3986 3.46848 12.4097 3.4604 12.4207C3.45231 12.4317 3.44423 12.4428 3.43615 12.4538C3.42806 12.4649 3.41998 12.4759 3.4119 12.4869C3.40382 12.498 3.39574 12.509 3.38766 12.52C3.37958 12.5311 3.3715 12.5421 3.36342 12.5531C3.35534 12.5642 3.34726 12.5752 3.33919 12.5862C3.33111 12.5972 3.32304 12.6083 3.31496 12.6193C3.30689 12.6303 3.29881 12.6413 3.29074 12.6524C3.28267 12.6634 3.2746 12.6744 3.26653 12.6854C3.25846 12.6965 3.25039 12.7075 3.24232 12.7185C3.23425 12.7295 3.22619 12.7405 3.21812 12.7515C3.21006 12.7625 3.20199 12.7736 3.19393 12.7846C3.18586 12.7956 3.1778 12.8066 3.16974 12.8176C3.16168 12.8286 3.15362 12.8396 3.14556 12.8506C3.1375 12.8616 3.12944 12.8726 3.12139 12.8836C3.11333 12.8946 3.10527 12.9056 3.09722 12.9166C3.08917 12.9276 3.08111 12.9386 3.07306 12.9496C3.06501 12.9606 3.05696 12.9716 3.04891 12.9826C3.04086 12.9936 3.03281 13.0046 3.02477 13.0156C3.01672 13.0265 3.00868 13.0375 3.00063 13.0485C2.99259 13.0595 2.98455 13.0705 2.97651 13.0815C2.96847 13.0924 2.96043 13.1034 2.95239 13.1144C2.94435 13.1254 2.93631 13.1363 2.92828 13.1473C2.92024 13.1583 2.91221 13.1693 2.90418 13.1802C2.89614 13.1912 2.88811 13.2022 2.88008 13.2131C2.87205 13.2241 2.86403 13.235 2.856 13.246C2.84797 13.257 2.83995 13.2679 2.83192 13.2789C2.8239 13.2898 2.81588 13.3008 2.80786 13.3117C2.79984 13.3227 2.79182 13.3336 2.7838 13.3446C2.77578 13.3555 2.76777 13.3665 2.75976 13.3774C2.75174 13.3884 2.74373 13.3993 2.73572 13.4102C2.72771 13.4212 2.7197 13.4321 2.71169 13.4431C2.70368 13.454 2.69568 13.4649 2.68767 13.4758C2.67967 13.4868 2.67167 13.4977 2.66367 13.5086C2.65567 13.5196 2.64767 13.5305 2.63967 13.5414C2.63167 13.5523 2.62368 13.5632 2.61569 13.5741C2.60769 13.5851 2.5997 13.596 2.59171 13.6069C2.58372 13.6178 2.57573 13.6287 2.56775 13.6396C2.55976 13.6505 2.55178 13.6614 2.54379 13.6723C2.53581 13.6832 2.52783 13.6941 2.51985 13.705C2.51187 13.7159 2.5039 13.7268 2.49592 13.7377C2.48795 13.7486 2.47997 13.7595 2.472 13.7703C2.46403 13.7812 2.45606 13.7921 2.44809 13.803C2.44013 13.8139 2.43216 13.8247 2.4242 13.8356C2.41624 13.8465 2.40828 13.8574 2.40032 13.8682C2.39236 13.8791 2.3844 13.89 2.37645 13.9008C2.36849 13.9117 2.36054 13.9226 2.35259 13.9334C2.34464 13.9443 2.33669 13.9551 2.32874 13.966C2.32079 13.9768 2.31285 13.9877 2.30491 13.9985C2.29696 14.0094 2.28902 14.0202 2.28109 14.031C2.27315 14.0419 2.26521 14.0527 2.25728 14.0635C2.24934 14.0744 2.24141 14.0852 2.23348 14.096C2.22555 14.1069 2.21763 14.1177 2.2097 14.1285C2.20178 14.1393 2.19385 14.1502 2.18593 14.161C2.17801 14.1718 2.1701 14.1826 2.16218 14.1934C2.15426 14.2042 2.14635 14.215 2.13844 14.2258C2.13053 14.2366 2.12262 14.2474 2.11471 14.2582C2.10681 14.269 2.0989 14.2798 2.091 14.2906C2.0831 14.3014 2.0752 14.3122 2.0673 14.323C2.05941 14.3337 2.05151 14.3445 2.04362 14.3553C2.03573 14.3661 2.02784 14.3768 2.01995 14.3876C2.01206 14.3984 2.00418 14.4092 1.9963 14.4199C1.98842 14.4307 1.98054 14.4414 1.97266 14.4522C1.96478 14.4629 1.95691 14.4737 1.94904 14.4845C1.94116 14.4952 1.93329 14.5059 1.92543 14.5167C1.91756 14.5274 1.9097 14.5382 1.90183 14.5489C1.89397 14.5596 1.88611 14.5704 1.87826 14.5811C1.8704 14.5918 1.86255 14.6026 1.8547 14.6133C1.84684 14.624 1.839 14.6347 1.83115 14.6454C1.8233 14.6561 1.81546 14.6668 1.80762 14.6776C1.79978 14.6883 1.79194 14.699 1.78411 14.7097C1.77627 14.7204 1.76844 14.7311 1.76061 14.7417C1.75278 14.7524 1.74495 14.7631 1.73713 14.7738C1.72931 14.7845 1.72148 14.7952 1.71367 14.8058C1.70585 14.8165 1.69803 14.8272 1.69022 14.8379C1.68241 14.8485 1.6746 14.8592 1.66679 14.8699C1.65898 14.8805 1.65118 14.8912 1.64338 14.9018C1.63558 14.9125 1.62778 14.9231 1.61998 14.9338C1.61219 14.9444 1.6044 14.9551 1.59661 14.9657L2.40339 15.5565Z" fill="black"/>
</svg>
