<svg width="69" height="69" viewBox="0 0 69 69" fill="none" xmlns="http://www.w3.org/2000/svg">
<path d="M34.5 0C15.4666 0 -6.31348e-05 15.4667 1.93288e-10 34.5C-6.31348e-05 53.5337 15.4666 69 34.5 69C53.5334 69 69.0001 53.5337 69 34.5C69.0001 15.4667 53.5334 0 34.5 0ZM34.5 3.45C51.6688 3.45 65.5501 17.3314 65.55 34.5C65.5501 51.6689 51.6688 65.55 34.5 65.55C17.3312 65.55 3.44994 51.6689 3.45 34.5C3.44994 17.3314 17.3312 3.45 34.5 3.45Z" fill="#08266E"/>
<path d="M48.5322 23L31.1714 41.23L22.3351 32.9287L20 35.3795L31.3041 46L51 25.3191L48.5322 23Z" fill="#08266E"/>
</svg>
